<?xml version="1.0" encoding="iso-8859-1"?>
<!-- Generator: Adobe Illustrator 19.0.0, SVG Export Plug-In . SVG Version: 6.00 Build 0)  -->
<svg version="1.1" id="Layer_1" fill="#e1e4e5" xmlns="http://www.w3.org/2000/svg" xmlns:xlink="http://www.w3.org/1999/xlink" x="0px" y="0px" 
	 viewBox="0 0 512 512" style="enable-background:new 0 0 512 512;" xml:space="preserve">
<g>
	<g>
		<g>
			<path d="M247.188,128c29.397,0,53.333-23.936,53.333-53.333s-23.936-53.333-53.333-53.333s-53.333,23.936-53.333,53.333
				S217.791,128,247.188,128z M247.188,42.667c17.643,0,32,14.357,32,32c0,17.643-14.357,32-32,32s-32-14.357-32-32
				C215.188,57.024,229.546,42.667,247.188,42.667z"/>
			<path d="M220.82,149.333c-5.909,0-11.904,1.045-17.771,3.136c-5.547,1.963-8.448,8.064-6.485,13.611
				c1.984,5.547,8.064,8.469,13.611,6.485c3.584-1.259,7.168-1.899,10.667-1.899h52.672c16.107,0,29.739,12.053,31.744,28.032
				l10.56,84.459c0.683,5.397,5.269,9.344,10.581,9.344c0.448,0,0.896-0.021,1.301-0.085c5.845-0.725,9.984-6.059,9.259-11.904
				l-10.56-84.459c-3.307-26.645-26.069-46.72-52.907-46.72H220.82z"/>
			<path d="M508.863,493.803l-57.749-57.749c11.243-14.443,18.219-32.363,18.219-52.053c0-47.061-38.272-85.333-85.333-85.333
				S298.666,336.939,298.666,384c0,47.061,38.272,85.333,85.333,85.333c19.669,0,37.589-6.955,52.032-18.197l57.749,57.749
				c2.091,2.069,4.821,3.115,7.552,3.115c2.709,0,5.44-1.045,7.531-3.115C513.023,504.725,513.023,497.963,508.863,493.803z
				 M383.999,448c-35.285,0-64-28.715-64-64c0-35.285,28.715-64,64-64c35.285,0,64,28.715,64,64
				C447.999,419.285,419.284,448,383.999,448z"/>
			<path d="M292.308,445.44c-6.144-0.405-10.965,4.011-11.392,9.877l-1.003,14.037h-65.472l-7.68-107.456
				c-0.405-5.867-5.355-10.56-11.392-9.877c-5.867,0.405-10.304,5.525-9.877,11.392l8.384,117.355
				c0.405,5.568,5.056,9.899,10.645,9.899h85.333c5.589,0,10.24-4.331,10.624-9.899l1.707-23.936
				C302.612,450.965,298.175,445.867,292.308,445.44z"/>
			<path d="M96.02,106.667c29.397,0,53.333-23.936,53.333-53.333S125.418,0,96.02,0S42.687,23.936,42.687,53.333
				S66.623,106.667,96.02,106.667z M96.02,21.333c17.643,0,32,14.357,32,32c0,17.643-14.357,32-32,32c-17.643,0-32-14.357-32-32
				C64.02,35.691,78.378,21.333,96.02,21.333z"/>
			<path d="M191.743,303.723L177.62,179.819C174.271,150.272,150.868,128,123.242,128H68.756c-27.627,0-51.008,22.272-54.379,51.819
				L0.255,303.723c-1.173,10.368,2.027,20.672,8.768,28.224c5.824,6.507,13.547,10.304,21.909,10.773l11.776,159.403
				c0.427,5.568,5.056,9.877,10.645,9.877h85.333c5.589,0,10.219-4.309,10.603-9.877l11.776-159.403
				c8.363-0.469,16.107-4.245,21.909-10.773C189.738,324.373,192.938,314.091,191.743,303.723z M167.082,317.739
				c-1.216,1.365-3.883,3.691-7.808,3.691h-8.085c-5.589,0-10.24,4.309-10.645,9.877l-11.776,159.36H63.252l-11.755-159.36
				c-0.427-5.568-5.056-9.877-10.645-9.877h-8.085c-3.925,0-6.571-2.325-7.808-3.691c-2.709-3.051-3.989-7.275-3.499-11.605
				l14.123-123.904c2.133-18.752,16.405-32.896,33.195-32.896h54.485c16.768,0,31.04,14.144,33.195,32.896l14.123,123.904
				C171.071,310.464,169.791,314.688,167.082,317.739z"/>
		</g>
	</g>
</g>
<g>
</g>
<g>
</g>
<g>
</g>
<g>
</g>
<g>
</g>
<g>
</g>
<g>
</g>
<g>
</g>
<g>
</g>
<g>
</g>
<g>
</g>
<g>
</g>
<g>
</g>
<g>
</g>
<g>
</g>
</svg>
